<svg width="80" height="76" viewBox="0 0 80 76" fill="none" xmlns="http://www.w3.org/2000/svg">
<path d="M79.015 6.5L38.015 0V21.5H48.015V75.5H79.015V6.5Z" fill="#0F3063"/>
<path d="M61.015 21.5H56.015V61H61.015V21.5Z" fill="white"/>
<path d="M71.015 21H66.015V67H71.015V21Z" fill="white"/>
<path d="M43.015 26.5H18.015V76H43.015V26.5Z" fill="#0F3063"/>
<path d="M35.015 34H26.015V39H35.015V34Z" fill="white"/>
<path d="M35.015 44H26.015V49H35.015V44Z" fill="white"/>
<path d="M35.015 54H26.015V59H35.015V54Z" fill="white"/>
<path d="M13.015 39H0.0149536V76H13.015V39Z" fill="#0F3063"/>
<path d="M17.015 60H8.01495V65H17.015V60Z" fill="white"/>
<path d="M17.015 50H8.01495V55H17.015V50Z" fill="white"/>
</svg>
