<svg width="339" height="77" viewBox="0 0 339 77" fill="none" xmlns="http://www.w3.org/2000/svg">
<path d="M79 6.92529L38 0.425293V21.9253H48V75.9253H79V6.92529Z" fill="white"/>
<path d="M61 21.9253H56V61.4253H61V21.9253Z" fill="#0F3063"/>
<path d="M71 21.4253H66V67.4253H71V21.4253Z" fill="#0F3063"/>
<path d="M43 26.9253H18V76.4253H43V26.9253Z" fill="white"/>
<path d="M35 34.4253H26V39.4253H35V34.4253Z" fill="#0F3063"/>
<path d="M35 44.4253H26V49.4253H35V44.4253Z" fill="#0F3063"/>
<path d="M35 54.4253H26V59.4253H35V54.4253Z" fill="#0F3063"/>
<path d="M13 39.4253H0V76.4253H13V39.4253Z" fill="white"/>
<path d="M17 60.4253H8V65.4253H17V60.4253Z" fill="#0F3063"/>
<path d="M17 50.4253H8V55.4253H17V50.4253Z" fill="#0F3063"/>
<path d="M113.766 21.9917V27.8706H111.51V23.9253H100.875V9.64795H103.219V21.9233H109.518V9.64795H111.842V21.9917H113.766ZM120.143 12.9097C121.106 12.9097 121.933 13.1082 122.623 13.5054C123.313 13.9025 123.844 14.4657 124.215 15.1948C124.586 15.924 124.771 16.7964 124.771 17.812V19.0425H117.555C117.581 20.0907 117.861 20.8979 118.395 21.4644C118.935 22.0308 119.69 22.314 120.66 22.314C121.35 22.314 121.969 22.2489 122.516 22.1187C123.069 21.9819 123.639 21.7834 124.225 21.5229V23.3882C123.684 23.6421 123.134 23.8276 122.574 23.9448C122.014 24.062 121.344 24.1206 120.562 24.1206C119.501 24.1206 118.567 23.9155 117.76 23.5054C116.959 23.0887 116.331 22.4702 115.875 21.6499C115.426 20.8296 115.201 19.8107 115.201 18.5933C115.201 17.3823 115.406 16.3537 115.816 15.5073C116.227 14.661 116.803 14.0164 117.545 13.5737C118.287 13.131 119.153 12.9097 120.143 12.9097ZM120.143 14.6382C119.42 14.6382 118.834 14.8726 118.385 15.3413C117.942 15.8101 117.682 16.4969 117.604 17.4019H122.525C122.519 16.8615 122.428 16.383 122.252 15.9663C122.083 15.5496 121.822 15.2241 121.471 14.9897C121.126 14.7554 120.683 14.6382 120.143 14.6382ZM129.664 13.1147V17.4604H134.723V13.1147H137.027V23.9253H134.723V19.2573H129.664V23.9253H127.359V13.1147H129.664ZM148.473 14.9214H144.918V23.9253H142.633V14.9214H139.098V13.1147H148.473V14.9214ZM156.109 12.9097C157.392 12.9097 158.421 13.3784 159.195 14.3159C159.977 15.2534 160.367 16.6466 160.367 18.4956C160.367 19.7196 160.185 20.7515 159.82 21.5913C159.462 22.4246 158.958 23.0562 158.307 23.4858C157.662 23.909 156.91 24.1206 156.051 24.1206C155.504 24.1206 155.029 24.049 154.625 23.9058C154.221 23.7625 153.876 23.577 153.59 23.3491C153.303 23.1147 153.062 22.8608 152.867 22.5874H152.73C152.763 22.8478 152.792 23.1375 152.818 23.4565C152.851 23.769 152.867 24.0555 152.867 24.3159V28.7202H150.562V13.1147H152.438L152.76 14.6089H152.867C153.069 14.3029 153.313 14.0197 153.6 13.7593C153.893 13.4989 154.244 13.2938 154.654 13.144C155.071 12.9878 155.556 12.9097 156.109 12.9097ZM155.494 14.7847C154.863 14.7847 154.355 14.9116 153.971 15.1655C153.593 15.4129 153.316 15.7873 153.141 16.2886C152.971 16.7899 152.88 17.4181 152.867 18.1733V18.4956C152.867 19.2964 152.949 19.9767 153.111 20.5366C153.281 21.09 153.557 21.5132 153.941 21.8062C154.332 22.0926 154.859 22.2358 155.523 22.2358C156.083 22.2358 156.546 22.0828 156.91 21.7769C157.281 21.4709 157.558 21.0347 157.74 20.4683C157.923 19.9019 158.014 19.2345 158.014 18.4663C158.014 17.3009 157.805 16.396 157.389 15.7515C156.979 15.1069 156.347 14.7847 155.494 14.7847ZM181.344 21.9917V27.8706H179.088V23.9253H168.453V9.64795H170.797V21.9233H177.096V9.64795H179.42V21.9917H181.344ZM188.6 23.9253H186.246V11.6401H182.066V9.64795H192.77V11.6401H188.6V23.9253ZM201.041 11.4351C200.357 11.4351 199.745 11.5588 199.205 11.8062C198.671 12.0535 198.219 12.4116 197.848 12.8804C197.477 13.3426 197.193 13.9058 196.998 14.5698C196.803 15.2274 196.705 15.9696 196.705 16.7964C196.705 17.9032 196.861 18.8569 197.174 19.6577C197.486 20.452 197.962 21.064 198.6 21.4937C199.238 21.9168 200.045 22.1284 201.021 22.1284C201.627 22.1284 202.216 22.0698 202.789 21.9526C203.362 21.8354 203.954 21.6759 204.566 21.4741V23.4663C203.987 23.6942 203.401 23.8602 202.809 23.9644C202.216 24.0685 201.533 24.1206 200.758 24.1206C199.299 24.1206 198.089 23.8179 197.125 23.2124C196.168 22.6069 195.452 21.7541 194.977 20.6538C194.508 19.5535 194.273 18.2645 194.273 16.7866C194.273 15.7059 194.423 14.7163 194.723 13.8179C195.022 12.9194 195.458 12.1447 196.031 11.4937C196.604 10.8361 197.311 10.3315 198.15 9.97998C198.997 9.62191 199.964 9.44287 201.051 9.44287C201.767 9.44287 202.47 9.52425 203.16 9.68701C203.857 9.84326 204.501 10.0679 205.094 10.3608L204.273 12.2944C203.779 12.0601 203.261 11.8582 202.721 11.689C202.18 11.5197 201.62 11.4351 201.041 11.4351ZM220.309 16.7671C220.309 17.8674 220.169 18.87 219.889 19.7749C219.615 20.6733 219.202 21.4481 218.648 22.0991C218.095 22.7437 217.402 23.2417 216.568 23.5933C215.735 23.9448 214.758 24.1206 213.639 24.1206C212.499 24.1206 211.51 23.9448 210.67 23.5933C209.837 23.2417 209.143 22.7404 208.59 22.0894C208.043 21.4383 207.633 20.6603 207.359 19.7554C207.086 18.8504 206.949 17.8478 206.949 16.7476C206.949 15.2762 207.19 13.9937 207.672 12.8999C208.16 11.7996 208.899 10.9468 209.889 10.3413C210.885 9.72933 212.141 9.42334 213.658 9.42334C215.143 9.42334 216.376 9.72607 217.359 10.3315C218.342 10.937 219.078 11.7899 219.566 12.8901C220.061 13.9839 220.309 15.2762 220.309 16.7671ZM209.41 16.7671C209.41 17.8674 209.56 18.8211 209.859 19.6284C210.159 20.4292 210.618 21.0477 211.236 21.4839C211.861 21.9136 212.662 22.1284 213.639 22.1284C214.622 22.1284 215.423 21.9136 216.041 21.4839C216.66 21.0477 217.115 20.4292 217.408 19.6284C217.701 18.8211 217.848 17.8674 217.848 16.7671C217.848 15.0939 217.512 13.7853 216.842 12.8413C216.178 11.8908 215.117 11.4155 213.658 11.4155C212.682 11.4155 211.878 11.6304 211.246 12.0601C210.621 12.4897 210.159 13.105 209.859 13.9058C209.56 14.7 209.41 15.6538 209.41 16.7671ZM232.721 9.64795C234.563 9.64795 235.908 10.0256 236.754 10.7808C237.6 11.536 238.023 12.5939 238.023 13.9546C238.023 14.5731 237.926 15.1623 237.73 15.7222C237.542 16.2756 237.229 16.7671 236.793 17.1968C236.357 17.62 235.781 17.9552 235.064 18.2026C234.355 18.45 233.479 18.5737 232.438 18.5737H230.914V23.9253H228.57V9.64795H232.721ZM232.564 11.5913H230.914V16.6206H232.193C232.929 16.6206 233.554 16.536 234.068 16.3667C234.583 16.1909 234.973 15.9142 235.24 15.5366C235.507 15.159 235.641 14.661 235.641 14.0425C235.641 13.2157 235.39 12.6004 234.889 12.1968C234.394 11.7931 233.619 11.5913 232.564 11.5913ZM245.826 23.9253H243.473V11.6401H239.293V9.64795H249.996V11.6401H245.826V23.9253ZM100.578 34.5034H101.82V41.105C101.82 41.355 101.818 41.6284 101.812 41.9253C101.807 42.217 101.799 42.5034 101.789 42.7847C101.779 43.0659 101.766 43.3211 101.75 43.5503C101.74 43.7795 101.729 43.9565 101.719 44.0815H101.781L108.141 34.5034H109.602V45.9253H108.359V39.4019C108.359 39.1258 108.365 38.8341 108.375 38.5269C108.385 38.2144 108.396 37.9123 108.406 37.6206C108.422 37.3289 108.438 37.0685 108.453 36.8394C108.469 36.605 108.479 36.4253 108.484 36.3003H108.414L102.047 45.9253H100.578V34.5034ZM113.828 37.3628V40.9565H118.602V37.3628H119.898V45.9253H118.602V42.0581H113.828V45.9253H112.523V37.3628H113.828ZM127.625 33.769V37.2378C128.474 37.3107 129.214 37.5321 129.844 37.9019C130.474 38.2664 130.964 38.7638 131.312 39.394C131.661 40.0243 131.836 40.7743 131.836 41.644C131.836 42.4982 131.667 43.243 131.328 43.8784C130.995 44.5138 130.513 45.0164 129.883 45.3862C129.258 45.756 128.505 45.9774 127.625 46.0503V49.769H126.359V46.0503C125.51 45.9878 124.771 45.7743 124.141 45.4097C123.516 45.0399 123.029 44.5373 122.68 43.9019C122.331 43.2664 122.156 42.5138 122.156 41.644C122.156 40.7743 122.323 40.0243 122.656 39.394C122.995 38.7586 123.479 38.2586 124.109 37.894C124.74 37.5243 125.503 37.3055 126.398 37.2378V33.769H127.625ZM126.398 38.3159C125.737 38.3732 125.193 38.5399 124.766 38.8159C124.339 39.092 124.021 39.467 123.812 39.9409C123.609 40.4149 123.508 40.9826 123.508 41.644C123.508 42.3055 123.612 42.8758 123.82 43.355C124.029 43.8289 124.346 44.2039 124.773 44.48C125.201 44.756 125.742 44.9253 126.398 44.9878V38.3159ZM127.625 38.3315V44.9878C128.281 44.9201 128.82 44.7456 129.242 44.4644C129.669 44.1831 129.984 43.8055 130.188 43.3315C130.396 42.8576 130.5 42.2951 130.5 41.644C130.5 40.6545 130.263 39.881 129.789 39.3237C129.315 38.7612 128.594 38.4305 127.625 38.3315ZM141.484 41.6284C141.484 42.3315 141.393 42.9591 141.211 43.5112C141.029 44.0633 140.766 44.5295 140.422 44.9097C140.078 45.2899 139.661 45.5815 139.172 45.7847C138.688 45.9826 138.138 46.0815 137.523 46.0815C136.951 46.0815 136.424 45.9826 135.945 45.7847C135.471 45.5815 135.06 45.2899 134.711 44.9097C134.367 44.5295 134.099 44.0633 133.906 43.5112C133.719 42.9591 133.625 42.3315 133.625 41.6284C133.625 40.6909 133.784 39.894 134.102 39.2378C134.419 38.5763 134.872 38.0737 135.461 37.73C136.055 37.381 136.76 37.2065 137.578 37.2065C138.359 37.2065 139.042 37.381 139.625 37.73C140.214 38.0789 140.669 38.5841 140.992 39.2456C141.32 39.9019 141.484 40.6961 141.484 41.6284ZM134.969 41.6284C134.969 42.3159 135.06 42.9123 135.242 43.4175C135.424 43.9227 135.706 44.3133 136.086 44.5894C136.466 44.8654 136.956 45.0034 137.555 45.0034C138.148 45.0034 138.635 44.8654 139.016 44.5894C139.401 44.3133 139.685 43.9227 139.867 43.4175C140.049 42.9123 140.141 42.3159 140.141 41.6284C140.141 40.9461 140.049 40.3576 139.867 39.8628C139.685 39.3628 139.404 38.9774 139.023 38.7065C138.643 38.4357 138.151 38.3003 137.547 38.3003C136.656 38.3003 136.003 38.5946 135.586 39.1831C135.174 39.7716 134.969 40.5868 134.969 41.6284ZM147.75 37.2065C148.818 37.2065 149.669 37.5737 150.305 38.3081C150.94 39.0425 151.258 40.1466 151.258 41.6206C151.258 42.5946 151.112 43.4123 150.82 44.0737C150.529 44.7352 150.117 45.2352 149.586 45.5737C149.06 45.9123 148.438 46.0815 147.719 46.0815C147.266 46.0815 146.867 46.0216 146.523 45.9019C146.18 45.7821 145.885 45.6206 145.641 45.4175C145.396 45.2144 145.193 44.993 145.031 44.7534H144.938C144.953 44.9565 144.971 45.2013 144.992 45.4878C145.018 45.7743 145.031 46.0243 145.031 46.2378V49.7534H143.727V37.3628H144.797L144.969 38.6284H145.031C145.198 38.368 145.401 38.131 145.641 37.9175C145.88 37.6987 146.172 37.5269 146.516 37.4019C146.865 37.2716 147.276 37.2065 147.75 37.2065ZM147.523 38.3003C146.93 38.3003 146.451 38.4149 146.086 38.644C145.727 38.8732 145.464 39.217 145.297 39.6753C145.13 40.1284 145.042 40.6987 145.031 41.3862V41.6362C145.031 42.3602 145.109 42.9722 145.266 43.4722C145.427 43.9722 145.69 44.3524 146.055 44.6128C146.424 44.8732 146.919 45.0034 147.539 45.0034C148.07 45.0034 148.513 44.8602 148.867 44.5737C149.221 44.2873 149.484 43.8888 149.656 43.3784C149.833 42.8628 149.922 42.2716 149.922 41.605C149.922 40.5946 149.724 39.7925 149.328 39.1987C148.938 38.5998 148.336 38.3003 147.523 38.3003ZM162.562 37.3628V45.9253H161.391V40.3472C161.391 40.118 161.396 39.8862 161.406 39.6519C161.422 39.4123 161.44 39.1727 161.461 38.9331H161.414L158.57 45.9253H157.469L154.695 38.9331H154.648C154.664 39.1727 154.674 39.4123 154.68 39.6519C154.69 39.8862 154.695 40.1336 154.695 40.394V45.9253H153.516V37.3628H155.258L158.023 44.3628L160.828 37.3628H162.562ZM168.461 37.2222C169.482 37.2222 170.24 37.4513 170.734 37.9097C171.229 38.368 171.477 39.0998 171.477 40.105V45.9253H170.531L170.281 44.6597H170.219C169.979 44.9722 169.729 45.2352 169.469 45.4487C169.208 45.6571 168.906 45.8159 168.562 45.9253C168.224 46.0295 167.807 46.0815 167.312 46.0815C166.792 46.0815 166.328 45.9904 165.922 45.8081C165.521 45.6258 165.203 45.3498 164.969 44.98C164.74 44.6102 164.625 44.1414 164.625 43.5737C164.625 42.7196 164.964 42.0633 165.641 41.605C166.318 41.1466 167.349 40.8966 168.734 40.855L170.211 40.7925V40.269C170.211 39.5295 170.052 39.0112 169.734 38.7144C169.417 38.4175 168.969 38.269 168.391 38.269C167.943 38.269 167.516 38.3341 167.109 38.4644C166.703 38.5946 166.318 38.7482 165.953 38.9253L165.555 37.9409C165.94 37.743 166.383 37.5737 166.883 37.4331C167.383 37.2925 167.909 37.2222 168.461 37.2222ZM170.195 41.7065L168.891 41.7612C167.823 41.8029 167.07 41.9774 166.633 42.2847C166.195 42.592 165.977 43.0269 165.977 43.5894C165.977 44.0789 166.125 44.4409 166.422 44.6753C166.719 44.9097 167.112 45.0269 167.602 45.0269C168.362 45.0269 168.984 44.8159 169.469 44.394C169.953 43.9722 170.195 43.3394 170.195 42.4956V41.7065ZM182.484 48.8862H181.219V45.9253H174.148V37.3628H175.453V44.8237H179.992V37.3628H181.289V44.8394H182.484V48.8862ZM185.398 37.3628V42.7456C185.398 42.8498 185.396 42.9852 185.391 43.1519C185.385 43.3133 185.378 43.4878 185.367 43.6753C185.357 43.8576 185.346 44.0347 185.336 44.2065C185.331 44.3732 185.323 44.5112 185.312 44.6206L189.984 37.3628H191.578V45.9253H190.367V40.6753C190.367 40.5086 190.37 40.2951 190.375 40.0347C190.38 39.7743 190.388 39.519 190.398 39.269C190.409 39.0138 190.417 38.8159 190.422 38.6753L185.766 45.9253H184.164V37.3628H185.398ZM201.719 41.6284C201.719 42.3315 201.628 42.9591 201.445 43.5112C201.263 44.0633 201 44.5295 200.656 44.9097C200.312 45.2899 199.896 45.5815 199.406 45.7847C198.922 45.9826 198.372 46.0815 197.758 46.0815C197.185 46.0815 196.659 45.9826 196.18 45.7847C195.706 45.5815 195.294 45.2899 194.945 44.9097C194.602 44.5295 194.333 44.0633 194.141 43.5112C193.953 42.9591 193.859 42.3315 193.859 41.6284C193.859 40.6909 194.018 39.894 194.336 39.2378C194.654 38.5763 195.107 38.0737 195.695 37.73C196.289 37.381 196.995 37.2065 197.812 37.2065C198.594 37.2065 199.276 37.381 199.859 37.73C200.448 38.0789 200.904 38.5841 201.227 39.2456C201.555 39.9019 201.719 40.6961 201.719 41.6284ZM195.203 41.6284C195.203 42.3159 195.294 42.9123 195.477 43.4175C195.659 43.9227 195.94 44.3133 196.32 44.5894C196.701 44.8654 197.19 45.0034 197.789 45.0034C198.383 45.0034 198.87 44.8654 199.25 44.5894C199.635 44.3133 199.919 43.9227 200.102 43.4175C200.284 42.9123 200.375 42.3159 200.375 41.6284C200.375 40.9461 200.284 40.3576 200.102 39.8628C199.919 39.3628 199.638 38.9774 199.258 38.7065C198.878 38.4357 198.385 38.3003 197.781 38.3003C196.891 38.3003 196.237 38.5946 195.82 39.1831C195.409 39.7716 195.203 40.5868 195.203 41.6284ZM205.266 37.3628V40.9565H210.039V37.3628H211.336V45.9253H210.039V42.0581H205.266V45.9253H203.961V37.3628H205.266ZM215.391 37.3628V40.9565H220.164V37.3628H221.461V45.9253H220.164V42.0581H215.391V45.9253H214.086V37.3628H215.391ZM231.594 41.6284C231.594 42.3315 231.503 42.9591 231.32 43.5112C231.138 44.0633 230.875 44.5295 230.531 44.9097C230.188 45.2899 229.771 45.5815 229.281 45.7847C228.797 45.9826 228.247 46.0815 227.633 46.0815C227.06 46.0815 226.534 45.9826 226.055 45.7847C225.581 45.5815 225.169 45.2899 224.82 44.9097C224.477 44.5295 224.208 44.0633 224.016 43.5112C223.828 42.9591 223.734 42.3315 223.734 41.6284C223.734 40.6909 223.893 39.894 224.211 39.2378C224.529 38.5763 224.982 38.0737 225.57 37.73C226.164 37.381 226.87 37.2065 227.688 37.2065C228.469 37.2065 229.151 37.381 229.734 37.73C230.323 38.0789 230.779 38.5841 231.102 39.2456C231.43 39.9019 231.594 40.6961 231.594 41.6284ZM225.078 41.6284C225.078 42.3159 225.169 42.9123 225.352 43.4175C225.534 43.9227 225.815 44.3133 226.195 44.5894C226.576 44.8654 227.065 45.0034 227.664 45.0034C228.258 45.0034 228.745 44.8654 229.125 44.5894C229.51 44.3133 229.794 43.9227 229.977 43.4175C230.159 42.9123 230.25 42.3159 230.25 41.6284C230.25 40.9461 230.159 40.3576 229.977 39.8628C229.794 39.3628 229.513 38.9774 229.133 38.7065C228.753 38.4357 228.26 38.3003 227.656 38.3003C226.766 38.3003 226.112 38.5946 225.695 39.1831C225.284 39.7716 225.078 40.5868 225.078 41.6284ZM237.133 37.2065C237.862 37.2065 238.487 37.368 239.008 37.6909C239.529 38.0138 239.927 38.467 240.203 39.0503C240.479 39.6284 240.617 40.3055 240.617 41.0815V41.8862H234.703C234.719 42.8914 234.969 43.6571 235.453 44.1831C235.938 44.7091 236.62 44.9722 237.5 44.9722C238.042 44.9722 238.521 44.9227 238.938 44.8237C239.354 44.7248 239.786 44.5789 240.234 44.3862V45.5269C239.802 45.7196 239.372 45.8602 238.945 45.9487C238.523 46.0373 238.023 46.0815 237.445 46.0815C236.622 46.0815 235.904 45.9149 235.289 45.5815C234.68 45.243 234.206 44.7482 233.867 44.0972C233.529 43.4461 233.359 42.6493 233.359 41.7065C233.359 40.7847 233.513 39.9878 233.82 39.3159C234.133 38.6388 234.57 38.118 235.133 37.7534C235.701 37.3888 236.367 37.2065 237.133 37.2065ZM237.117 38.269C236.424 38.269 235.872 38.4956 235.461 38.9487C235.049 39.4019 234.805 40.0347 234.727 40.8472H239.258C239.253 40.3368 239.172 39.8888 239.016 39.5034C238.865 39.1128 238.633 38.8107 238.32 38.5972C238.008 38.3784 237.607 38.269 237.117 38.269ZM245.625 37.3628H247.016L248.906 42.3315C249.016 42.6232 249.117 42.9045 249.211 43.1753C249.305 43.4409 249.388 43.6961 249.461 43.9409C249.534 44.1857 249.591 44.4227 249.633 44.6519H249.688C249.76 44.3914 249.865 44.0503 250 43.6284C250.135 43.2013 250.281 42.7664 250.438 42.3237L252.227 37.3628H253.625L249.898 47.1831C249.701 47.7091 249.469 48.1675 249.203 48.5581C248.943 48.9487 248.625 49.2482 248.25 49.4565C247.875 49.6701 247.422 49.7769 246.891 49.7769C246.646 49.7769 246.43 49.7612 246.242 49.73C246.055 49.7039 245.893 49.6727 245.758 49.6362V48.5972C245.872 48.6232 246.01 48.6466 246.172 48.6675C246.339 48.6883 246.51 48.6987 246.688 48.6987C247.01 48.6987 247.289 48.6362 247.523 48.5112C247.763 48.3914 247.969 48.2144 248.141 47.98C248.312 47.7456 248.461 47.467 248.586 47.144L249.055 45.9409L245.625 37.3628ZM262.164 37.3628V45.9253H260.859V38.48H256.297V45.9253H254.992V37.3628H262.164ZM268.938 37.2065C270.005 37.2065 270.857 37.5737 271.492 38.3081C272.128 39.0425 272.445 40.1466 272.445 41.6206C272.445 42.5946 272.299 43.4123 272.008 44.0737C271.716 44.7352 271.305 45.2352 270.773 45.5737C270.247 45.9123 269.625 46.0815 268.906 46.0815C268.453 46.0815 268.055 46.0216 267.711 45.9019C267.367 45.7821 267.073 45.6206 266.828 45.4175C266.583 45.2144 266.38 44.993 266.219 44.7534H266.125C266.141 44.9565 266.159 45.2013 266.18 45.4878C266.206 45.7743 266.219 46.0243 266.219 46.2378V49.7534H264.914V37.3628H265.984L266.156 38.6284H266.219C266.385 38.368 266.589 38.131 266.828 37.9175C267.068 37.6987 267.359 37.5269 267.703 37.4019C268.052 37.2716 268.464 37.2065 268.938 37.2065ZM268.711 38.3003C268.117 38.3003 267.638 38.4149 267.273 38.644C266.914 38.8732 266.651 39.217 266.484 39.6753C266.318 40.1284 266.229 40.6987 266.219 41.3862V41.6362C266.219 42.3602 266.297 42.9722 266.453 43.4722C266.615 43.9722 266.878 44.3524 267.242 44.6128C267.612 44.8732 268.107 45.0034 268.727 45.0034C269.258 45.0034 269.701 44.8602 270.055 44.5737C270.409 44.2873 270.672 43.8888 270.844 43.3784C271.021 42.8628 271.109 42.2716 271.109 41.605C271.109 40.5946 270.911 39.7925 270.516 39.1987C270.125 38.5998 269.523 38.3003 268.711 38.3003ZM277.914 37.2222C278.935 37.2222 279.693 37.4513 280.188 37.9097C280.682 38.368 280.93 39.0998 280.93 40.105V45.9253H279.984L279.734 44.6597H279.672C279.432 44.9722 279.182 45.2352 278.922 45.4487C278.661 45.6571 278.359 45.8159 278.016 45.9253C277.677 46.0295 277.26 46.0815 276.766 46.0815C276.245 46.0815 275.781 45.9904 275.375 45.8081C274.974 45.6258 274.656 45.3498 274.422 44.98C274.193 44.6102 274.078 44.1414 274.078 43.5737C274.078 42.7196 274.417 42.0633 275.094 41.605C275.771 41.1466 276.802 40.8966 278.188 40.855L279.664 40.7925V40.269C279.664 39.5295 279.505 39.0112 279.188 38.7144C278.87 38.4175 278.422 38.269 277.844 38.269C277.396 38.269 276.969 38.3341 276.562 38.4644C276.156 38.5946 275.771 38.7482 275.406 38.9253L275.008 37.9409C275.393 37.743 275.836 37.5737 276.336 37.4331C276.836 37.2925 277.362 37.2222 277.914 37.2222ZM279.648 41.7065L278.344 41.7612C277.276 41.8029 276.523 41.9774 276.086 42.2847C275.648 42.592 275.43 43.0269 275.43 43.5894C275.43 44.0789 275.578 44.4409 275.875 44.6753C276.172 44.9097 276.565 45.0269 277.055 45.0269C277.815 45.0269 278.438 44.8159 278.922 44.394C279.406 43.9722 279.648 43.3394 279.648 42.4956V41.7065ZM290.406 39.5112C290.406 40.0477 290.25 40.467 289.938 40.769C289.625 41.0659 289.221 41.2664 288.727 41.3706V41.4331C289.263 41.506 289.724 41.6987 290.109 42.0112C290.5 42.3185 290.695 42.7899 290.695 43.4253C290.695 43.9149 290.578 44.3472 290.344 44.7222C290.109 45.0972 289.742 45.3914 289.242 45.605C288.742 45.8185 288.091 45.9253 287.289 45.9253H283.602V37.3628H287.258C287.872 37.3628 288.414 37.4331 288.883 37.5737C289.357 37.7091 289.729 37.9331 290 38.2456C290.271 38.5581 290.406 38.98 290.406 39.5112ZM289.344 43.4253C289.344 42.9201 289.151 42.5555 288.766 42.3315C288.385 42.1076 287.831 41.9956 287.102 41.9956H284.906V44.8706H287.133C287.852 44.8706 288.398 44.7612 288.773 44.5425C289.154 44.3185 289.344 43.9461 289.344 43.4253ZM289.086 39.6597C289.086 39.2534 288.938 38.9513 288.641 38.7534C288.344 38.5503 287.857 38.4487 287.18 38.4487H284.906V40.9097H286.953C287.656 40.9097 288.188 40.8081 288.547 40.605C288.906 40.4019 289.086 40.0868 289.086 39.6597ZM299.211 45.9253H297.891V38.4487H295.289C295.185 39.7977 295.052 40.9539 294.891 41.9175C294.734 42.8758 294.536 43.6597 294.297 44.269C294.062 44.8732 293.776 45.3185 293.438 45.605C293.104 45.8862 292.706 46.0269 292.242 46.0269C292.102 46.0269 291.969 46.019 291.844 46.0034C291.719 45.9878 291.612 45.9618 291.523 45.9253V44.9409C291.591 44.9618 291.661 44.9774 291.734 44.9878C291.812 44.9982 291.893 45.0034 291.977 45.0034C292.211 45.0034 292.424 44.9071 292.617 44.7144C292.815 44.5164 292.992 44.2196 293.148 43.8237C293.31 43.4279 293.453 42.9279 293.578 42.3237C293.703 41.7144 293.812 40.9982 293.906 40.1753C294.005 39.3472 294.091 38.4097 294.164 37.3628H299.211V45.9253ZM305.242 37.2065C305.971 37.2065 306.596 37.368 307.117 37.6909C307.638 38.0138 308.036 38.467 308.312 39.0503C308.589 39.6284 308.727 40.3055 308.727 41.0815V41.8862H302.812C302.828 42.8914 303.078 43.6571 303.562 44.1831C304.047 44.7091 304.729 44.9722 305.609 44.9722C306.151 44.9722 306.63 44.9227 307.047 44.8237C307.464 44.7248 307.896 44.5789 308.344 44.3862V45.5269C307.911 45.7196 307.482 45.8602 307.055 45.9487C306.633 46.0373 306.133 46.0815 305.555 46.0815C304.732 46.0815 304.013 45.9149 303.398 45.5815C302.789 45.243 302.315 44.7482 301.977 44.0972C301.638 43.4461 301.469 42.6493 301.469 41.7065C301.469 40.7847 301.622 39.9878 301.93 39.3159C302.242 38.6388 302.68 38.118 303.242 37.7534C303.81 37.3888 304.477 37.2065 305.242 37.2065ZM305.227 38.269C304.534 38.269 303.982 38.4956 303.57 38.9487C303.159 39.4019 302.914 40.0347 302.836 40.8472H307.367C307.362 40.3368 307.281 39.8888 307.125 39.5034C306.974 39.1128 306.742 38.8107 306.43 38.5972C306.117 38.3784 305.716 38.269 305.227 38.269ZM312.234 37.3628V40.9565H317.008V37.3628H318.305V45.9253H317.008V42.0581H312.234V45.9253H310.93V37.3628H312.234ZM322.289 37.3628V42.7456C322.289 42.8498 322.286 42.9852 322.281 43.1519C322.276 43.3133 322.268 43.4878 322.258 43.6753C322.247 43.8576 322.237 44.0347 322.227 44.2065C322.221 44.3732 322.214 44.5112 322.203 44.6206L326.875 37.3628H328.469V45.9253H327.258V40.6753C327.258 40.5086 327.26 40.2951 327.266 40.0347C327.271 39.7743 327.279 39.519 327.289 39.269C327.299 39.0138 327.307 38.8159 327.312 38.6753L322.656 45.9253H321.055V37.3628H322.289ZM334.523 37.2065C335.253 37.2065 335.878 37.368 336.398 37.6909C336.919 38.0138 337.318 38.467 337.594 39.0503C337.87 39.6284 338.008 40.3055 338.008 41.0815V41.8862H332.094C332.109 42.8914 332.359 43.6571 332.844 44.1831C333.328 44.7091 334.01 44.9722 334.891 44.9722C335.432 44.9722 335.911 44.9227 336.328 44.8237C336.745 44.7248 337.177 44.5789 337.625 44.3862V45.5269C337.193 45.7196 336.763 45.8602 336.336 45.9487C335.914 46.0373 335.414 46.0815 334.836 46.0815C334.013 46.0815 333.294 45.9149 332.68 45.5815C332.07 45.243 331.596 44.7482 331.258 44.0972C330.919 43.4461 330.75 42.6493 330.75 41.7065C330.75 40.7847 330.904 39.9878 331.211 39.3159C331.523 38.6388 331.961 38.118 332.523 37.7534C333.091 37.3888 333.758 37.2065 334.523 37.2065ZM334.508 38.269C333.815 38.269 333.263 38.4956 332.852 38.9487C332.44 39.4019 332.195 40.0347 332.117 40.8472H336.648C336.643 40.3368 336.562 39.8888 336.406 39.5034C336.255 39.1128 336.023 38.8107 335.711 38.5972C335.398 38.3784 334.997 38.269 334.508 38.269ZM107.539 59.3628V67.9253H106.234V60.48H101.672V67.9253H100.367V59.3628H107.539ZM114.312 59.2065C115.38 59.2065 116.232 59.5737 116.867 60.3081C117.503 61.0425 117.82 62.1466 117.82 63.6206C117.82 64.5946 117.674 65.4123 117.383 66.0737C117.091 66.7352 116.68 67.2352 116.148 67.5737C115.622 67.9123 115 68.0815 114.281 68.0815C113.828 68.0815 113.43 68.0216 113.086 67.9019C112.742 67.7821 112.448 67.6206 112.203 67.4175C111.958 67.2144 111.755 66.993 111.594 66.7534H111.5C111.516 66.9565 111.534 67.2013 111.555 67.4878C111.581 67.7743 111.594 68.0243 111.594 68.2378V71.7534H110.289V59.3628H111.359L111.531 60.6284H111.594C111.76 60.368 111.964 60.131 112.203 59.9175C112.443 59.6987 112.734 59.5269 113.078 59.4019C113.427 59.2716 113.839 59.2065 114.312 59.2065ZM114.086 60.3003C113.492 60.3003 113.013 60.4149 112.648 60.644C112.289 60.8732 112.026 61.217 111.859 61.6753C111.693 62.1284 111.604 62.6987 111.594 63.3862V63.6362C111.594 64.3602 111.672 64.9722 111.828 65.4722C111.99 65.9722 112.253 66.3524 112.617 66.6128C112.987 66.8732 113.482 67.0034 114.102 67.0034C114.633 67.0034 115.076 66.8602 115.43 66.5737C115.784 66.2873 116.047 65.8888 116.219 65.3784C116.396 64.8628 116.484 64.2716 116.484 63.605C116.484 62.5946 116.286 61.7925 115.891 61.1987C115.5 60.5998 114.898 60.3003 114.086 60.3003ZM127.469 63.6284C127.469 64.3315 127.378 64.9591 127.195 65.5112C127.013 66.0633 126.75 66.5295 126.406 66.9097C126.062 67.2899 125.646 67.5815 125.156 67.7847C124.672 67.9826 124.122 68.0815 123.508 68.0815C122.935 68.0815 122.409 67.9826 121.93 67.7847C121.456 67.5815 121.044 67.2899 120.695 66.9097C120.352 66.5295 120.083 66.0633 119.891 65.5112C119.703 64.9591 119.609 64.3315 119.609 63.6284C119.609 62.6909 119.768 61.894 120.086 61.2378C120.404 60.5763 120.857 60.0737 121.445 59.73C122.039 59.381 122.745 59.2065 123.562 59.2065C124.344 59.2065 125.026 59.381 125.609 59.73C126.198 60.0789 126.654 60.5841 126.977 61.2456C127.305 61.9019 127.469 62.6961 127.469 63.6284ZM120.953 63.6284C120.953 64.3159 121.044 64.9123 121.227 65.4175C121.409 65.9227 121.69 66.3133 122.07 66.5894C122.451 66.8654 122.94 67.0034 123.539 67.0034C124.133 67.0034 124.62 66.8654 125 66.5894C125.385 66.3133 125.669 65.9227 125.852 65.4175C126.034 64.9123 126.125 64.3159 126.125 63.6284C126.125 62.9461 126.034 62.3576 125.852 61.8628C125.669 61.3628 125.388 60.9774 125.008 60.7065C124.628 60.4357 124.135 60.3003 123.531 60.3003C122.641 60.3003 121.987 60.5946 121.57 61.1831C121.159 61.7716 120.953 62.5868 120.953 63.6284ZM133.008 59.2065C133.737 59.2065 134.362 59.368 134.883 59.6909C135.404 60.0138 135.802 60.467 136.078 61.0503C136.354 61.6284 136.492 62.3055 136.492 63.0815V63.8862H130.578C130.594 64.8914 130.844 65.6571 131.328 66.1831C131.812 66.7091 132.495 66.9722 133.375 66.9722C133.917 66.9722 134.396 66.9227 134.812 66.8237C135.229 66.7248 135.661 66.5789 136.109 66.3862V67.5269C135.677 67.7196 135.247 67.8602 134.82 67.9487C134.398 68.0373 133.898 68.0815 133.32 68.0815C132.497 68.0815 131.779 67.9149 131.164 67.5815C130.555 67.243 130.081 66.7482 129.742 66.0972C129.404 65.4461 129.234 64.6493 129.234 63.7065C129.234 62.7847 129.388 61.9878 129.695 61.3159C130.008 60.6388 130.445 60.118 131.008 59.7534C131.576 59.3888 132.242 59.2065 133.008 59.2065ZM132.992 60.269C132.299 60.269 131.747 60.4956 131.336 60.9487C130.924 61.4019 130.68 62.0347 130.602 62.8472H135.133C135.128 62.3368 135.047 61.8888 134.891 61.5034C134.74 61.1128 134.508 60.8107 134.195 60.5972C133.883 60.3784 133.482 60.269 132.992 60.269ZM143.688 59.3628H145.117L141.422 63.4956L145.414 67.9253H143.891L140 63.5815V67.9253H138.695V59.3628H140V63.519L143.688 59.3628ZM152.797 60.4644H149.977V67.9253H148.695V60.4644H145.914V59.3628H152.797V60.4644ZM157.695 59.2222C158.716 59.2222 159.474 59.4513 159.969 59.9097C160.464 60.368 160.711 61.0998 160.711 62.105V67.9253H159.766L159.516 66.6597H159.453C159.214 66.9722 158.964 67.2352 158.703 67.4487C158.443 67.6571 158.141 67.8159 157.797 67.9253C157.458 68.0295 157.042 68.0815 156.547 68.0815C156.026 68.0815 155.562 67.9904 155.156 67.8081C154.755 67.6258 154.438 67.3498 154.203 66.98C153.974 66.6102 153.859 66.1414 153.859 65.5737C153.859 64.7196 154.198 64.0633 154.875 63.605C155.552 63.1466 156.583 62.8966 157.969 62.855L159.445 62.7925V62.269C159.445 61.5295 159.286 61.0112 158.969 60.7144C158.651 60.4175 158.203 60.269 157.625 60.269C157.177 60.269 156.75 60.3341 156.344 60.4644C155.938 60.5946 155.552 60.7482 155.188 60.9253L154.789 59.9409C155.174 59.743 155.617 59.5737 156.117 59.4331C156.617 59.2925 157.143 59.2222 157.695 59.2222ZM159.43 63.7065L158.125 63.7612C157.057 63.8029 156.305 63.9774 155.867 64.2847C155.43 64.592 155.211 65.0269 155.211 65.5894C155.211 66.0789 155.359 66.4409 155.656 66.6753C155.953 66.9097 156.346 67.0269 156.836 67.0269C157.596 67.0269 158.219 66.8159 158.703 66.394C159.188 65.9722 159.43 65.3394 159.43 64.4956V63.7065ZM172.422 59.3628V67.9253H171.25V62.3472C171.25 62.118 171.255 61.8862 171.266 61.6519C171.281 61.4123 171.299 61.1727 171.32 60.9331H171.273L168.43 67.9253H167.328L164.555 60.9331H164.508C164.523 61.1727 164.534 61.4123 164.539 61.6519C164.549 61.8862 164.555 62.1336 164.555 62.394V67.9253H163.375V59.3628H165.117L167.883 66.3628L170.688 59.3628H172.422ZM176.352 59.3628V64.7456C176.352 64.8498 176.349 64.9852 176.344 65.1519C176.339 65.3133 176.331 65.4878 176.32 65.6753C176.31 65.8576 176.299 66.0347 176.289 66.2065C176.284 66.3732 176.276 66.5112 176.266 66.6206L180.938 59.3628H182.531V67.9253H181.32V62.6753C181.32 62.5086 181.323 62.2951 181.328 62.0347C181.333 61.7743 181.341 61.519 181.352 61.269C181.362 61.0138 181.37 60.8159 181.375 60.6753L176.719 67.9253H175.117V59.3628H176.352Z" fill="white"/>
</svg>
