<svg width="81" height="81" viewBox="0 0 81 81" fill="none" xmlns="http://www.w3.org/2000/svg">
<rect x="0.132652" y="0.160156" width="80" height="80" rx="40" fill="#0F3063"/>
<path d="M35.3105 47.0563L25.3099 57.0569C24.7372 57.6296 23.8087 57.6296 23.236 57.0569C22.6632 56.4842 22.6632 55.5557 23.236 54.983L33.2365 44.9824C33.811 44.4079 33.811 43.4764 33.2365 42.902L29.3391 39.0045C28.7646 38.43 28.7646 37.4986 29.3391 36.9241L29.4546 36.8085C30.0291 36.234 30.9605 36.234 31.535 36.8085L35.4325 40.706C36.007 41.2805 36.9384 41.2805 37.5129 40.706L50.4311 27.7878C51.3578 26.8611 50.7015 25.2765 49.3909 25.2765H40.0178C39.2053 25.2765 38.5467 24.6179 38.5467 23.8054V23.6977C38.5467 22.8852 39.2053 22.2266 40.0178 22.2266H56.5952C57.4077 22.2266 58.0663 22.8852 58.0663 23.6977V40.2751C58.0663 41.0876 57.4077 41.7462 56.5952 41.7462H56.4875C55.675 41.7462 55.0164 41.0876 55.0164 40.2751V30.902C55.0164 29.5914 53.4318 28.935 52.5051 29.8618L39.5869 42.78C39.0124 43.3544 39.0124 44.2859 39.5869 44.8604L43.7283 49.0018C44.3028 49.5763 44.3028 50.5078 43.7283 51.0823L43.6128 51.1978C43.0383 51.7723 42.1069 51.7723 41.5324 51.1978L37.3909 47.0563C36.8164 46.4819 35.885 46.4818 35.3105 47.0563Z" fill="white"/>
</svg>
